<svg width="275" height="65" viewBox="0 0 275 65" fill="none" xmlns="http://www.w3.org/2000/svg">
<rect y="0.5" width="64" height="64" rx="16" fill="#4B3F72"/>
<path d="M12 12.5L41 19.5L44 34.5L34 44.5L19 41.5L12 12.5ZM12 12.5L27.172 27.672M32 46.5L46 32.5L52 38.5L38 52.5L32 46.5ZM34 30.5C34 32.7091 32.2091 34.5 30 34.5C27.7909 34.5 26 32.7091 26 30.5C26 28.2909 27.7909 26.5 30 26.5C32.2091 26.5 34 28.2909 34 30.5Z" stroke="white" stroke-width="4" stroke-linecap="round" stroke-linejoin="round"/>
<rect x="64" y="0.5" width="211" height="64" rx="8" fill="white"/>
<path d="M91.2081 32.044C92.4668 32.2787 93.5015 32.908 94.3121 33.932C95.1228 34.956 95.5281 36.1293 95.5281 37.452C95.5281 38.6467 95.2295 39.7027 94.6321 40.62C94.0561 41.516 93.2135 42.22 92.1041 42.732C90.9948 43.244 89.6828 43.5 88.1681 43.5H78.5361V21.164H87.7521C89.2668 21.164 90.5681 21.4093 91.6561 21.9C92.7655 22.3907 93.5975 23.0733 94.1521 23.948C94.7281 24.8227 95.0161 25.8147 95.0161 26.924C95.0161 28.2253 94.6641 29.3133 93.9601 30.188C93.2775 31.0627 92.3601 31.6813 91.2081 32.044ZM83.0161 30.38H87.1121C88.1788 30.38 89.0001 30.1453 89.5761 29.676C90.1521 29.1853 90.4401 28.492 90.4401 27.596C90.4401 26.7 90.1521 26.0067 89.5761 25.516C89.0001 25.0253 88.1788 24.78 87.1121 24.78H83.0161V30.38ZM87.5281 39.852C88.6161 39.852 89.4588 39.596 90.0561 39.084C90.6748 38.572 90.9841 37.8467 90.9841 36.908C90.9841 35.948 90.6641 35.2013 90.0241 34.668C89.3841 34.1133 88.5201 33.836 87.4321 33.836H83.0161V39.852H87.5281ZM103.579 19.82V43.5H99.0986V19.82H103.579ZM115.877 43.788C114.17 43.788 112.634 43.4147 111.269 42.668C109.904 41.9 108.826 40.8227 108.037 39.436C107.269 38.0493 106.885 36.4493 106.885 34.636C106.885 32.8227 107.28 31.2227 108.069 29.836C108.88 28.4493 109.978 27.3827 111.365 26.636C112.752 25.868 114.298 25.484 116.005 25.484C117.712 25.484 119.258 25.868 120.645 26.636C122.032 27.3827 123.12 28.4493 123.909 29.836C124.72 31.2227 125.125 32.8227 125.125 34.636C125.125 36.4493 124.709 38.0493 123.877 39.436C123.066 40.8227 121.957 41.9 120.549 42.668C119.162 43.4147 117.605 43.788 115.877 43.788ZM115.877 39.884C116.688 39.884 117.445 39.692 118.149 39.308C118.874 38.9027 119.45 38.3053 119.877 37.516C120.304 36.7267 120.517 35.7667 120.517 34.636C120.517 32.9507 120.069 31.66 119.173 30.764C118.298 29.8467 117.221 29.388 115.941 29.388C114.661 29.388 113.584 29.8467 112.709 30.764C111.856 31.66 111.429 32.9507 111.429 34.636C111.429 36.3213 111.845 37.6227 112.677 38.54C113.53 39.436 114.597 39.884 115.877 39.884ZM135.355 25.484C136.678 25.484 137.84 25.7507 138.843 26.284C139.846 26.796 140.635 27.468 141.211 28.3V25.772H145.723V43.628C145.723 45.2707 145.392 46.732 144.731 48.012C144.07 49.3133 143.078 50.3373 141.755 51.084C140.432 51.852 138.832 52.236 136.955 52.236C134.438 52.236 132.368 51.6493 130.747 50.476C129.147 49.3027 128.24 47.7027 128.027 45.676H132.475C132.71 46.4867 133.211 47.1267 133.979 47.596C134.768 48.0867 135.718 48.332 136.827 48.332C138.128 48.332 139.184 47.9373 139.995 47.148C140.806 46.38 141.211 45.2067 141.211 43.628V40.876C140.635 41.708 139.835 42.4013 138.811 42.956C137.808 43.5107 136.656 43.788 135.355 43.788C133.862 43.788 132.496 43.404 131.259 42.636C130.022 41.868 129.04 40.7907 128.315 39.404C127.611 37.996 127.259 36.3853 127.259 34.572C127.259 32.78 127.611 31.1907 128.315 29.804C129.04 28.4173 130.011 27.3507 131.227 26.604C132.464 25.8573 133.84 25.484 135.355 25.484ZM141.211 34.636C141.211 33.548 140.998 32.62 140.571 31.852C140.144 31.0627 139.568 30.4653 138.843 30.06C138.118 29.6333 137.339 29.42 136.507 29.42C135.675 29.42 134.907 29.6227 134.203 30.028C133.499 30.4333 132.923 31.0307 132.475 31.82C132.048 32.588 131.835 33.5053 131.835 34.572C131.835 35.6387 132.048 36.5773 132.475 37.388C132.923 38.1773 133.499 38.7853 134.203 39.212C134.928 39.6387 135.696 39.852 136.507 39.852C137.339 39.852 138.118 39.6493 138.843 39.244C139.568 38.8173 140.144 38.22 140.571 37.452C140.998 36.6627 141.211 35.724 141.211 34.636ZM157.811 43.724C156.253 43.724 154.845 43.4573 153.587 42.924C152.349 42.3907 151.368 41.6227 150.643 40.62C149.917 39.6173 149.544 38.4333 149.523 37.068H154.323C154.387 37.9853 154.707 38.7107 155.283 39.244C155.88 39.7773 156.691 40.044 157.715 40.044C158.76 40.044 159.581 39.7987 160.179 39.308C160.776 38.796 161.075 38.1347 161.075 37.324C161.075 36.6627 160.872 36.1187 160.467 35.692C160.061 35.2653 159.549 34.9347 158.931 34.7C158.333 34.444 157.501 34.1667 156.435 33.868C154.984 33.4413 153.8 33.0253 152.883 32.62C151.987 32.1933 151.208 31.564 150.547 30.732C149.907 29.8787 149.587 28.748 149.587 27.34C149.587 26.0173 149.917 24.8653 150.579 23.884C151.24 22.9027 152.168 22.156 153.363 21.644C154.557 21.1107 155.923 20.844 157.459 20.844C159.763 20.844 161.629 21.4093 163.059 22.54C164.509 23.6493 165.309 25.2067 165.459 27.212H160.531C160.488 26.444 160.157 25.8147 159.539 25.324C158.941 24.812 158.141 24.556 157.139 24.556C156.264 24.556 155.56 24.78 155.027 25.228C154.515 25.676 154.259 26.3267 154.259 27.18C154.259 27.7773 154.451 28.2787 154.835 28.684C155.24 29.068 155.731 29.388 156.307 29.644C156.904 29.8787 157.736 30.156 158.803 30.476C160.253 30.9027 161.437 31.3293 162.355 31.756C163.272 32.1827 164.061 32.8227 164.723 33.676C165.384 34.5293 165.715 35.6493 165.715 37.036C165.715 38.2307 165.405 39.34 164.787 40.364C164.168 41.388 163.261 42.2093 162.067 42.828C160.872 43.4253 159.453 43.724 157.811 43.724ZM174.079 28.332C174.655 27.5213 175.444 26.8493 176.447 26.316C177.471 25.7613 178.633 25.484 179.935 25.484C181.449 25.484 182.815 25.8573 184.031 26.604C185.268 27.3507 186.239 28.4173 186.943 29.804C187.668 31.1693 188.031 32.7587 188.031 34.572C188.031 36.3853 187.668 37.996 186.943 39.404C186.239 40.7907 185.268 41.868 184.031 42.636C182.815 43.404 181.449 43.788 179.935 43.788C178.633 43.788 177.481 43.5213 176.479 42.988C175.497 42.4547 174.697 41.7827 174.079 40.972V51.948H169.599V25.772H174.079V28.332ZM183.455 34.572C183.455 33.5053 183.231 32.588 182.783 31.82C182.356 31.0307 181.78 30.4333 181.055 30.028C180.351 29.6227 179.583 29.42 178.751 29.42C177.94 29.42 177.172 29.6333 176.447 30.06C175.743 30.4653 175.167 31.0627 174.719 31.852C174.292 32.6413 174.079 33.5693 174.079 34.636C174.079 35.7027 174.292 36.6307 174.719 37.42C175.167 38.2093 175.743 38.8173 176.447 39.244C177.172 39.6493 177.94 39.852 178.751 39.852C179.583 39.852 180.351 39.6387 181.055 39.212C181.78 38.7853 182.356 38.1773 182.783 37.388C183.231 36.5987 183.455 35.66 183.455 34.572ZM201.27 25.516C202.614 25.516 203.809 25.8147 204.854 26.412C205.899 26.988 206.71 27.852 207.286 29.004C207.883 30.1347 208.182 31.5 208.182 33.1V43.5H203.702V33.708C203.702 32.3 203.35 31.2227 202.646 30.476C201.942 29.708 200.982 29.324 199.766 29.324C198.529 29.324 197.547 29.708 196.822 30.476C196.118 31.2227 195.766 32.3 195.766 33.708V43.5H191.286V19.82H195.766V27.98C196.342 27.212 197.11 26.6147 198.07 26.188C199.03 25.74 200.097 25.516 201.27 25.516ZM228.922 34.252C228.922 34.892 228.88 35.468 228.794 35.98H215.834C215.941 37.26 216.389 38.2627 217.178 38.988C217.968 39.7133 218.938 40.076 220.09 40.076C221.754 40.076 222.938 39.3613 223.642 37.932H228.474C227.962 39.6387 226.981 41.0467 225.53 42.156C224.08 43.244 222.298 43.788 220.186 43.788C218.48 43.788 216.944 43.4147 215.578 42.668C214.234 41.9 213.178 40.8227 212.41 39.436C211.664 38.0493 211.29 36.4493 211.29 34.636C211.29 32.8013 211.664 31.1907 212.41 29.804C213.157 28.4173 214.202 27.3507 215.546 26.604C216.89 25.8573 218.437 25.484 220.186 25.484C221.872 25.484 223.376 25.8467 224.698 26.572C226.042 27.2973 227.077 28.332 227.802 29.676C228.549 30.9987 228.922 32.524 228.922 34.252ZM224.282 32.972C224.261 31.82 223.845 30.9027 223.034 30.22C222.224 29.516 221.232 29.164 220.058 29.164C218.949 29.164 218.01 29.5053 217.242 30.188C216.496 30.8493 216.037 31.7773 215.866 32.972H224.282ZM236.672 28.524C237.248 27.5853 237.995 26.8493 238.912 26.316C239.851 25.7827 240.918 25.516 242.112 25.516V30.22H240.928C239.52 30.22 238.454 30.5507 237.728 31.212C237.024 31.8733 236.672 33.0253 236.672 34.668V43.5H232.192V25.772H236.672V28.524ZM261.61 34.252C261.61 34.892 261.567 35.468 261.482 35.98H248.522C248.629 37.26 249.077 38.2627 249.866 38.988C250.655 39.7133 251.626 40.076 252.778 40.076C254.442 40.076 255.626 39.3613 256.33 37.932H261.162C260.65 39.6387 259.669 41.0467 258.218 42.156C256.767 43.244 254.986 43.788 252.874 43.788C251.167 43.788 249.631 43.4147 248.266 42.668C246.922 41.9 245.866 40.8227 245.098 39.436C244.351 38.0493 243.978 36.4493 243.978 34.636C243.978 32.8013 244.351 31.1907 245.098 29.804C245.845 28.4173 246.89 27.3507 248.234 26.604C249.578 25.8573 251.125 25.484 252.874 25.484C254.559 25.484 256.063 25.8467 257.386 26.572C258.73 27.2973 259.765 28.332 260.49 29.676C261.237 30.9987 261.61 32.524 261.61 34.252ZM256.97 32.972C256.949 31.82 256.533 30.9027 255.722 30.22C254.911 29.516 253.919 29.164 252.746 29.164C251.637 29.164 250.698 29.5053 249.93 30.188C249.183 30.8493 248.725 31.7773 248.554 32.972H256.97Z" fill="#4B3F72"/>
</svg>
