<svg width="275" height="64" viewBox="0 0 275 64" fill="none" xmlns="http://www.w3.org/2000/svg">
<rect width="64" height="64" rx="16" fill="#4B3F72"/>
<path d="M12 12L41 19L44 34L34 44L19 41L12 12ZM12 12L27.172 27.172M32 46L46 32L52 38L38 52L32 46ZM34 30C34 32.2091 32.2091 34 30 34C27.7909 34 26 32.2091 26 30C26 27.7909 27.7909 26 30 26C32.2091 26 34 27.7909 34 30Z" stroke="white" stroke-width="4" stroke-linecap="round" stroke-linejoin="round"/>
<rect x="64" width="211" height="64" rx="8" fill="white"/>
<path d="M91.2081 31.544C92.4668 31.7787 93.5015 32.408 94.3121 33.432C95.1228 34.456 95.5281 35.6293 95.5281 36.952C95.5281 38.1467 95.2295 39.2027 94.6321 40.12C94.0561 41.016 93.2135 41.72 92.1041 42.232C90.9948 42.744 89.6828 43 88.1681 43H78.5361V20.664H87.7521C89.2668 20.664 90.5681 20.9093 91.6561 21.4C92.7655 21.8907 93.5975 22.5733 94.1521 23.448C94.7281 24.3227 95.0161 25.3147 95.0161 26.424C95.0161 27.7253 94.6641 28.8133 93.9601 29.688C93.2775 30.5627 92.3601 31.1813 91.2081 31.544ZM83.0161 29.88H87.1121C88.1788 29.88 89.0001 29.6453 89.5761 29.176C90.1521 28.6853 90.4401 27.992 90.4401 27.096C90.4401 26.2 90.1521 25.5067 89.5761 25.016C89.0001 24.5253 88.1788 24.28 87.1121 24.28H83.0161V29.88ZM87.5281 39.352C88.6161 39.352 89.4588 39.096 90.0561 38.584C90.6748 38.072 90.9841 37.3467 90.9841 36.408C90.9841 35.448 90.6641 34.7013 90.0241 34.168C89.3841 33.6133 88.5201 33.336 87.4321 33.336H83.0161V39.352H87.5281ZM103.579 19.32V43H99.0986V19.32H103.579ZM115.877 43.288C114.17 43.288 112.634 42.9147 111.269 42.168C109.904 41.4 108.826 40.3227 108.037 38.936C107.269 37.5493 106.885 35.9493 106.885 34.136C106.885 32.3227 107.28 30.7227 108.069 29.336C108.88 27.9493 109.978 26.8827 111.365 26.136C112.752 25.368 114.298 24.984 116.005 24.984C117.712 24.984 119.258 25.368 120.645 26.136C122.032 26.8827 123.12 27.9493 123.909 29.336C124.72 30.7227 125.125 32.3227 125.125 34.136C125.125 35.9493 124.709 37.5493 123.877 38.936C123.066 40.3227 121.957 41.4 120.549 42.168C119.162 42.9147 117.605 43.288 115.877 43.288ZM115.877 39.384C116.688 39.384 117.445 39.192 118.149 38.808C118.874 38.4027 119.45 37.8053 119.877 37.016C120.304 36.2267 120.517 35.2667 120.517 34.136C120.517 32.4507 120.069 31.16 119.173 30.264C118.298 29.3467 117.221 28.888 115.941 28.888C114.661 28.888 113.584 29.3467 112.709 30.264C111.856 31.16 111.429 32.4507 111.429 34.136C111.429 35.8213 111.845 37.1227 112.677 38.04C113.53 38.936 114.597 39.384 115.877 39.384ZM135.355 24.984C136.678 24.984 137.84 25.2507 138.843 25.784C139.846 26.296 140.635 26.968 141.211 27.8V25.272H145.723V43.128C145.723 44.7707 145.392 46.232 144.731 47.512C144.07 48.8133 143.078 49.8373 141.755 50.584C140.432 51.352 138.832 51.736 136.955 51.736C134.438 51.736 132.368 51.1493 130.747 49.976C129.147 48.8027 128.24 47.2027 128.027 45.176H132.475C132.71 45.9867 133.211 46.6267 133.979 47.096C134.768 47.5867 135.718 47.832 136.827 47.832C138.128 47.832 139.184 47.4373 139.995 46.648C140.806 45.88 141.211 44.7067 141.211 43.128V40.376C140.635 41.208 139.835 41.9013 138.811 42.456C137.808 43.0107 136.656 43.288 135.355 43.288C133.862 43.288 132.496 42.904 131.259 42.136C130.022 41.368 129.04 40.2907 128.315 38.904C127.611 37.496 127.259 35.8853 127.259 34.072C127.259 32.28 127.611 30.6907 128.315 29.304C129.04 27.9173 130.011 26.8507 131.227 26.104C132.464 25.3573 133.84 24.984 135.355 24.984ZM141.211 34.136C141.211 33.048 140.998 32.12 140.571 31.352C140.144 30.5627 139.568 29.9653 138.843 29.56C138.118 29.1333 137.339 28.92 136.507 28.92C135.675 28.92 134.907 29.1227 134.203 29.528C133.499 29.9333 132.923 30.5307 132.475 31.32C132.048 32.088 131.835 33.0053 131.835 34.072C131.835 35.1387 132.048 36.0773 132.475 36.888C132.923 37.6773 133.499 38.2853 134.203 38.712C134.928 39.1387 135.696 39.352 136.507 39.352C137.339 39.352 138.118 39.1493 138.843 38.744C139.568 38.3173 140.144 37.72 140.571 36.952C140.998 36.1627 141.211 35.224 141.211 34.136ZM157.811 43.224C156.253 43.224 154.845 42.9573 153.587 42.424C152.349 41.8907 151.368 41.1227 150.643 40.12C149.917 39.1173 149.544 37.9333 149.523 36.568H154.323C154.387 37.4853 154.707 38.2107 155.283 38.744C155.88 39.2773 156.691 39.544 157.715 39.544C158.76 39.544 159.581 39.2987 160.179 38.808C160.776 38.296 161.075 37.6347 161.075 36.824C161.075 36.1627 160.872 35.6187 160.467 35.192C160.061 34.7653 159.549 34.4347 158.931 34.2C158.333 33.944 157.501 33.6667 156.435 33.368C154.984 32.9413 153.8 32.5253 152.883 32.12C151.987 31.6933 151.208 31.064 150.547 30.232C149.907 29.3787 149.587 28.248 149.587 26.84C149.587 25.5173 149.917 24.3653 150.579 23.384C151.24 22.4027 152.168 21.656 153.363 21.144C154.557 20.6107 155.923 20.344 157.459 20.344C159.763 20.344 161.629 20.9093 163.059 22.04C164.509 23.1493 165.309 24.7067 165.459 26.712H160.531C160.488 25.944 160.157 25.3147 159.539 24.824C158.941 24.312 158.141 24.056 157.139 24.056C156.264 24.056 155.56 24.28 155.027 24.728C154.515 25.176 154.259 25.8267 154.259 26.68C154.259 27.2773 154.451 27.7787 154.835 28.184C155.24 28.568 155.731 28.888 156.307 29.144C156.904 29.3787 157.736 29.656 158.803 29.976C160.253 30.4027 161.437 30.8293 162.355 31.256C163.272 31.6827 164.061 32.3227 164.723 33.176C165.384 34.0293 165.715 35.1493 165.715 36.536C165.715 37.7307 165.405 38.84 164.787 39.864C164.168 40.888 163.261 41.7093 162.067 42.328C160.872 42.9253 159.453 43.224 157.811 43.224ZM174.079 27.832C174.655 27.0213 175.444 26.3493 176.447 25.816C177.471 25.2613 178.633 24.984 179.935 24.984C181.449 24.984 182.815 25.3573 184.031 26.104C185.268 26.8507 186.239 27.9173 186.943 29.304C187.668 30.6693 188.031 32.2587 188.031 34.072C188.031 35.8853 187.668 37.496 186.943 38.904C186.239 40.2907 185.268 41.368 184.031 42.136C182.815 42.904 181.449 43.288 179.935 43.288C178.633 43.288 177.481 43.0213 176.479 42.488C175.497 41.9547 174.697 41.2827 174.079 40.472V51.448H169.599V25.272H174.079V27.832ZM183.455 34.072C183.455 33.0053 183.231 32.088 182.783 31.32C182.356 30.5307 181.78 29.9333 181.055 29.528C180.351 29.1227 179.583 28.92 178.751 28.92C177.94 28.92 177.172 29.1333 176.447 29.56C175.743 29.9653 175.167 30.5627 174.719 31.352C174.292 32.1413 174.079 33.0693 174.079 34.136C174.079 35.2027 174.292 36.1307 174.719 36.92C175.167 37.7093 175.743 38.3173 176.447 38.744C177.172 39.1493 177.94 39.352 178.751 39.352C179.583 39.352 180.351 39.1387 181.055 38.712C181.78 38.2853 182.356 37.6773 182.783 36.888C183.231 36.0987 183.455 35.16 183.455 34.072ZM201.27 25.016C202.614 25.016 203.809 25.3147 204.854 25.912C205.899 26.488 206.71 27.352 207.286 28.504C207.883 29.6347 208.182 31 208.182 32.6V43H203.702V33.208C203.702 31.8 203.35 30.7227 202.646 29.976C201.942 29.208 200.982 28.824 199.766 28.824C198.529 28.824 197.547 29.208 196.822 29.976C196.118 30.7227 195.766 31.8 195.766 33.208V43H191.286V19.32H195.766V27.48C196.342 26.712 197.11 26.1147 198.07 25.688C199.03 25.24 200.097 25.016 201.27 25.016ZM228.922 33.752C228.922 34.392 228.88 34.968 228.794 35.48H215.834C215.941 36.76 216.389 37.7627 217.178 38.488C217.968 39.2133 218.938 39.576 220.09 39.576C221.754 39.576 222.938 38.8613 223.642 37.432H228.474C227.962 39.1387 226.981 40.5467 225.53 41.656C224.08 42.744 222.298 43.288 220.186 43.288C218.48 43.288 216.944 42.9147 215.578 42.168C214.234 41.4 213.178 40.3227 212.41 38.936C211.664 37.5493 211.29 35.9493 211.29 34.136C211.29 32.3013 211.664 30.6907 212.41 29.304C213.157 27.9173 214.202 26.8507 215.546 26.104C216.89 25.3573 218.437 24.984 220.186 24.984C221.872 24.984 223.376 25.3467 224.698 26.072C226.042 26.7973 227.077 27.832 227.802 29.176C228.549 30.4987 228.922 32.024 228.922 33.752ZM224.282 32.472C224.261 31.32 223.845 30.4027 223.034 29.72C222.224 29.016 221.232 28.664 220.058 28.664C218.949 28.664 218.01 29.0053 217.242 29.688C216.496 30.3493 216.037 31.2773 215.866 32.472H224.282ZM236.672 28.024C237.248 27.0853 237.995 26.3493 238.912 25.816C239.851 25.2827 240.918 25.016 242.112 25.016V29.72H240.928C239.52 29.72 238.454 30.0507 237.728 30.712C237.024 31.3733 236.672 32.5253 236.672 34.168V43H232.192V25.272H236.672V28.024ZM261.61 33.752C261.61 34.392 261.567 34.968 261.482 35.48H248.522C248.629 36.76 249.077 37.7627 249.866 38.488C250.655 39.2133 251.626 39.576 252.778 39.576C254.442 39.576 255.626 38.8613 256.33 37.432H261.162C260.65 39.1387 259.669 40.5467 258.218 41.656C256.767 42.744 254.986 43.288 252.874 43.288C251.167 43.288 249.631 42.9147 248.266 42.168C246.922 41.4 245.866 40.3227 245.098 38.936C244.351 37.5493 243.978 35.9493 243.978 34.136C243.978 32.3013 244.351 30.6907 245.098 29.304C245.845 27.9173 246.89 26.8507 248.234 26.104C249.578 25.3573 251.125 24.984 252.874 24.984C254.559 24.984 256.063 25.3467 257.386 26.072C258.73 26.7973 259.765 27.832 260.49 29.176C261.237 30.4987 261.61 32.024 261.61 33.752ZM256.97 32.472C256.949 31.32 256.533 30.4027 255.722 29.72C254.911 29.016 253.919 28.664 252.746 28.664C251.637 28.664 250.698 29.0053 249.93 29.688C249.183 30.3493 248.725 31.2773 248.554 32.472H256.97Z" fill="#4B3F72"/>
</svg>
